<?xml version="1.0" encoding="UTF-8"?>
<svg width="60" height="80" viewBox="0 0 60 80" xmlns="http://www.w3.org/2000/svg">
  <!-- Hat -->
  <path d="M30 5 L45 25 L15 25 Z" fill="#ff0000" />
  
  <!-- Face -->
  <circle cx="30" cy="35" r="10" fill="#ffccaa" />
  
  <!-- Eyes -->
  <circle cx="26" cy="33" r="1.5" fill="#000000" />
  <circle cx="34" cy="33" r="1.5" fill="#000000" />
  
  <!-- Nose -->
  <circle cx="30" cy="36" r="2" fill="#ff9999" />
  
  <!-- Beard -->
  <path d="M20 35 Q30 50 40 35 L40 45 Q30 55 20 45 Z" fill="#cccccc" />
  
  <!-- Body -->
  <rect x="25" y="45" width="10" height="20" fill="#0000ff" />
  
  <!-- Arms -->
  <rect x="15" y="45" width="10" height="5" fill="#ffccaa" />
  <rect x="35" y="45" width="10" height="5" fill="#ffccaa" />
  
  <!-- Legs -->
  <rect x="25" y="65" width="4" height="10" fill="#663300" />
  <rect x="31" y="65" width="4" height="10" fill="#663300" />
  
  <!-- Feet -->
  <ellipse cx="27" cy="75" rx="4" ry="2" fill="#000000" />
  <ellipse cx="33" cy="75" rx="4" ry="2" fill="#000000" />
</svg>